<?xml version="1.0" encoding="UTF-8"?>
<svg id="Capa_1" data-name="Capa 1" xmlns="http://www.w3.org/2000/svg" viewBox="0 0 511.48 201.11">
  <defs>
    <style>
      .cls-1 {
        fill: #323222;
        stroke-width: 0px;
      }
    </style>
  </defs>
  <path class="cls-1" d="M118.86,165.69c.14,7.73.14,15.32.14,23.29-1.75.33-3.57.67-5.82,1.1-.09,1.47-.18,3.03-.31,5.29h-17.37c-.26,2.24-.45,3.8-.68,5.74h-17.11c-.24-1.34-.57-3.13-.96-5.27h-5.33v-11.86c-2.25-.21-3.82-.35-6.1-.56v-11.27c-2.26-.25-3.83-.43-5.74-.65v-10.93c-2.1-.39-3.93-.73-6.09-1.14v-16.85c-2.11-.34-3.94-.63-6.09-.97v-11.05h-5.69c-.22-4.09-.43-7.86-.65-11.98h-5.13c-.36-2.1-.68-3.91-1.05-6.06h-11.09v-5.52c-2.1-.33-3.9-.6-6.04-.94v-10.87c-2.1-.39-3.93-.73-6.14-1.14-.1-1.48-.2-3.04-.33-5.02-1.74-.27-3.56-.56-5.72-.91v-11.06H0v-11.98h10.84c.36-2.1.67-3.91,1.02-5.94,1.59-.16,3.16-.32,5.13-.51.26-1.72.54-3.54.87-5.67h11.16v-5.71h18.02c.16-2.23.27-3.8.41-5.79h59.26c.2,1.65.38,3.21.61,5.14h4.99c.4,2.09.74,3.89,1.15,6.04h10.94c.36,2.1.67,3.91,1.02,5.93,1.59.16,3.16.32,5.44.55v11.26c2.26.25,3.83.42,5.74.63v17.06h12.1c.1-1.48.22-3.04.38-5.3h11.67v-35.77h17.71c.25-2.25.42-3.81.63-5.71h17.05c.36-2.1.67-3.92,1.02-5.96h35.01v5.08c2.1.33,3.9.62,6.05.96v5.32h12.05c.16,2.23.27,3.8.41,5.77,1.74.27,3.57.56,5.47.86.2,1.67.39,3.23.62,5.16h5.13c.26-1.36.61-3.16,1.02-5.31h5.27c.11-2.1.21-3.88.32-5.86-2.09-.22-3.66-.38-5.63-.59v-5.21c1.31-.21,3.11-.51,5.26-.85v-4.94c2.11-.38,3.93-.71,6.09-1.11.12-1.51.24-3.07.39-5.05,1.74-.27,3.57-.56,5.46-.85.2-1.69.38-3.25.61-5.16h4.99c.4-2.09.75-3.9,1.19-6.18,1.45-.07,3.02-.14,5.3-.25V5.78c2.25-.25,3.82-.42,5.78-.64V0h12.03v4.76c2.11.38,3.93.7,6.1,1.09v10.94c2.12.33,3.96.61,5.84.9.2,1.7.38,3.26.61,5.17h5.46c.47,6.06.12,11.83.27,17.94h-11.54v12h11.12v5.41c2.11.36,3.91.68,6.06,1.05v5.25c2.11.13,3.91.24,6,.38.18-2.06.31-3.62.48-5.59,1.74-.27,3.57-.55,5.71-.88v-11.08h5.72c.19-4.08.36-7.88.56-12.08,1.71-.09,3.29-.18,5.56-.31v-11.34c2.25-.26,3.82-.44,5.78-.67v-11.08h12.04v4.8c2.11.37,3.94.69,6.1,1.07v16.96h17.79c.2-1.72.38-3.28.6-5.18h58.92c.27,1.39.61,3.19,1.02,5.3h5.08c.26-1.56.55-3.38.87-5.32,1.65-.19,3.22-.37,5.17-.6v-5c2.11-.38,3.91-.7,6.06-1.08v-5.07h17.98c.14,1.53.28,3.09.48,5.36h11.66v12h4.05v11.88h-3.98c0,13.65,0,27.32,0,41.45-1.93.09-3.49.16-5.76.27v53.03c-2.23.21-3.8.36-5.78.54-.26,1.72-.54,3.55-.85,5.52h-35.07v-5.04c-2.1-.4-3.92-.74-6.03-1.15v-16.92c1.55-.26,3.37-.56,5.43-.9v-28.87h-11.65v46.78h-5.33c-.4,2.09-.75,3.9-1.18,6.16-1.46.07-3.03.15-5.05.26v11.45c1.61.18,3.18.35,5.14.57v11.6h-17.21v5.49h-29.98v-10.88c-2.11-.34-3.94-.63-6.09-.97v-11.05h-5.68c-.23-4.08-.44-7.85-.67-11.96h-5.47v-17.85c-2.24-.18-3.81-.31-5.79-.47-.27-1.73-.55-3.55-.86-5.54h-5.18v10.96c-2.1.4-3.92.75-6.07,1.16v16.82c-2.1.35-3.93.66-6.09,1.02v11.33h-11.75c-.25,2.24-.43,3.8-.64,5.7h-40.86c-.4,2.08-.75,3.89-1.18,6.15-1.46.08-3.03.16-5.02.26-.29,1.73-.59,3.55-.92,5.58h-5.14c-.26-1.75-.54-3.57-.85-5.68h-11.18v-5.7h-12c-.17-2.23-.29-3.79-.46-6.05h-11.35c-.27-2.24-.45-3.8-.72-6.05h-11.32c-.25-2.25-.42-3.81-.62-5.7h-11.07c-.36-2.09-.67-3.91-1.03-5.96h-5.42v29.39h-17.69v4.74c-.56.52-.8.94-1.05.94-7.54.03-15.07.03-22.96.03v-11.32c-2.11-.11-3.91-.2-5.88-.31-.22,2.08-.39,3.64-.6,5.6h-41.28c-.2-1.74-.37-3.3-.63-5.55-3.84,0-7.74,0-11.78-.14-.14-1.7-.14-3.54-.14-5.38h-5.48v5.24c2.06,0,3.91,0,5.62.14ZM118.66,82.29v-11.2c-2.14-.33-3.93-.6-6.03-.92v-5.12c-1.97-.2-3.54-.36-5.14-.52-.34-2.01-.64-3.82-.99-5.9h-16.91c-.4-2.14-.75-3.95-1.01-5.36h-17.02c-.35,2.12-.64,3.91-.98,5.98h-28.99c-.23,1.93-.41,3.48-.68,5.72h-11.34c-.18,2.25-.3,3.81-.43,5.34-2.13.38-3.96.7-5.44.96v16.9c2.12.4,3.93.73,6.03,1.13v5.32h17.68v11.56c2.26.21,3.83.36,6.07.58v11.82h6.07v17.91h5.41c.24,4.1.46,7.86.7,11.93h5.67v11.04c2.15.35,3.97.65,6.07.99v10.89c2.16.4,3.98.74,6.07,1.13v11.04h17.23v-23.32c-1.93-.23-3.5-.41-5.2-.61v-29.15c1.97-.19,3.54-.35,5.14-.51.34-2.02.65-3.83,1-5.93h4.96c.41-2.15.76-3.95,1.16-6.04h5.33v-11.08c2.14-.32,3.96-.6,6.07-.92v-10.96c2.14-.36,3.97-.66,5.52-.92v-11.1c-1.86-.21-3.42-.38-6.02-.67ZM196.35,106.69v35.1c-1.91.21-3.48.39-5.22.59v17.26h17.74v-35.1h17.28c.41,2.11.75,3.91,1.16,6h10.96c.23,1.92.41,3.47.67,5.72h11.35c.18,2.27.31,3.83.49,6.06h11.98v5.44c4.14.23,7.93.44,12.03.67v5.29h5.15v-17.83h-11.05c-.41-2.15-.75-3.96-1.15-6.05h-10.99c-.22-1.9-.4-3.46-.59-5.18-1.89-.29-3.72-.57-5.45-.83-.18-1.96-.33-3.52-.47-5.08-2.08-.36-3.9-.68-6.01-1.04v-5.09c-4.14-.22-7.93-.43-12.04-.65v-5.65h-11.14v-5.68c2.01-.13,3.58-.23,5.07-.32.42-2.21.76-4.02,1.15-6.11h4.96c.33-2.13.61-3.91.94-6h5.15c.19-1.96.35-3.53.5-5.1,2.05-.35,3.88-.66,5.98-1.02v-4.93c2.16-.4,3.96-.74,5.32-.99v-5.1c-1.94-.23-3.51-.41-5.18-.61-.3-1.91-.59-3.72-.87-5.45-1.99-.13-3.56-.24-5.05-.34-.41-2.19-.75-4-1.14-6.1h-4.96c-.34-2.13-.63-3.92-.83-5.21h-5.26c-.2,1.96-.36,3.52-.52,5.11-2.04.35-3.86.65-5.97,1.01v4.93c-2.16.41-3.97.75-6.07,1.14v10.95h-11.73v-23.27h-11.35c-.38,2.08-.71,3.89-1.09,5.98h-11.43c.21,2.16.38,3.93.58,6.02h5.64v34.81c2.15.35,3.98.64,5.71.93.11,1.97.2,3.54.28,5.13,2,.22,3.57.4,5.48.61ZM376.06,35.45h-5.7c-.32,2.13-.59,3.91-.91,6h-5.57v11.02c-2.16.37-3.98.69-6.09,1.05v11c-1.91.21-3.48.37-5.74.62v11.25c-2.27.27-3.84.45-6.09.72v11.3c-2.27.15-3.85.26-6.09.41v29.8h-5.34c-.35,2.13-.64,3.92-.99,6.01h-5.11c-.21,1.95-.38,3.52-.55,5.12-2,.33-3.83.64-5.57.93-.09,1.97-.16,3.53-.22,4.97-2.31.44-4.12.78-5.5,1.05v11.1h23.11c.31-2,.6-3.82.86-5.54,1.98-.16,3.55-.29,5.8-.47v-11.91h5.47c.23-4.11.45-7.88.68-11.96h5.68v-11.05c2.16-.35,3.98-.64,5.72-.92.11-1.98.2-3.54.28-4.98h12.16v5.17c1.91.22,3.48.39,5.74.65v11.27c2.27.21,3.84.35,6.09.56v17.79h5.5c.22,4.12.42,7.89.64,11.97h5.69v11.06c2.15.34,3.98.63,5.71.9.13,1.97.24,3.54.38,5.58,2.18-.15,3.98-.28,6.09-.43v-5.34c4.13-.24,7.91-.46,11.22-.66v-5.31c-1.97-.2-3.54-.36-5.79-.59v-17.74h-5.52c-.21-4.12-.4-7.9-.6-11.98h-5.7v-11.07c-2.15-.33-3.98-.62-6.09-.94v-16.88c-2.16-.39-3.98-.71-6.09-1.09v-10.88c-2.15-.37-3.95-.68-6.05-1.04v-16.91c-1.95-.22-3.52-.4-5.77-.66v-11.34c-2.27-.13-3.85-.21-5.74-.32v-17.31ZM394.13,59.22h5.44c.32,2.13.6,3.91.92,6h5.56v11.03c2.15.36,3.98.66,6.07,1.01v22.76c2.15.4,3.97.74,6.06,1.13v22.73c2.13.35,3.93.64,6.03.99v11.03h11.14v-29.3c-2-.15-3.57-.28-5.08-.39v-11.97h5.1c.39-2.14.71-3.93,1.09-6.02h10.99c.23-1.93.41-3.48.61-5.16,1.91-.3,3.74-.58,5.47-.85.14-1.97.26-3.53.37-5.04,2.17-.39,3.99-.72,6.09-1.1v-10.86c2.15-.37,3.95-.69,5.29-.92v-17.39h-11.12c-.34-2.13-.62-3.95-.88-5.6h-46.95c-.34,2.04-.65,3.86-1,5.95h-11.2v11.98ZM322.01,70.41h-5.5c-.22-1.9-.39-3.46-.65-5.7h-17.3c-.22-2.26-.37-3.82-.53-5.38h-11.96v5.82h-18.02v5.33c-1.93.23-3.5.41-5.75.68v11.28c-2.27.17-3.84.3-5.36.41v29.8h5.11c.38,2.14.7,3.93,1.08,6.02h5.03c.23,1.94.41,3.5.6,5.13h41.34c.14-1.99.25-3.55.4-5.78h12.04v-5.32c2.15-.35,3.94-.63,5.25-.85v-5.21c-1.97-.21-3.54-.37-5.15-.54-.34-1.99-.64-3.81-.9-5.34h-17.02c-.41,2.1-.75,3.91-1.02,5.28h-11.17v-5.15c2-.31,3.83-.59,5.57-.85.17-1.97.3-3.53.43-5.07,2.12-.37,3.94-.69,6.04-1.07v-4.93c2.15-.38,3.96-.7,6.06-1.07v-5c1.95-.23,3.52-.41,5.17-.6.31-1.93.61-3.75.89-5.47,1.99-.11,3.56-.2,5.3-.31v-6.12ZM143.12,106.06h5.57v-5.18h-11.54c-.18,1.97-.32,3.53-.46,5.09-2.09.36-3.91.68-6.02,1.05v4.94c-2.15.39-3.96.71-5.3.95v34.84c1.95.23,3.52.41,5.17.6.31,1.93.61,3.74.89,5.47,1.99.12,3.56.21,5.03.29.43,2.23.77,4.05,1.04,5.44h23.07c.22-1.9.4-3.46.65-5.71h11.34c.21-2.26.35-3.82.49-5.38,2.09-.36,3.91-.68,6.02-1.05v-4.94c2.15-.39,3.96-.71,5.3-.95v-34.84c-1.95-.23-3.52-.41-5.17-.6-.31-1.93-.61-3.74-.95-5.84h-16.94c-.41-2.16-.75-3.97-1.02-5.36h-5.22v23.01h11.54c.18-1.97.32-3.53.51-5.6,2.06.12,3.86.23,5.35.32v17.32c-4.11.22-7.9.43-12.01.66v5.31h-11.13c-.33-2.03-.62-3.84-.91-5.58-1.06-.06-1.71-.07-2.36-.14-.93-.09-1.85-.21-2.95-.34v-23.77ZM465.86,135.77h23.76v-52.68c2.15-.33,3.98-.61,5.66-.86v-16.95h-17.96v5.22c-4.14.23-7.93.43-11.28.62v5.31c1.95.23,3.52.41,5.16.6v47.06c-2.01.12-3.58.21-5.33.31v11.36ZM495.22,46.82v-17.17h-11.97v5.09c-2.13.35-3.93.64-5.28.86v11.22h17.25ZM286.81,35.1c-.15,1.13-.45,2.32-.41,3.51.03.85.5,1.68.64,2.09h10.92c.34-2.12.62-3.9.94-5.94h10.86v-11.24h-11.02c-.39,2.1-.73,3.9-1.11,5.96h-4.91c-.37,2.12-.69,3.9-.99,5.62h-4.92Z"/>
  <path class="cls-1" d="M77.5,82.81h23.21v5.13c2.08.35,3.88.65,6.01,1.01v17.18c-1.87.2-3.44.36-5.32.56v11.4c-6.04.42-11.82.11-17.92.24v-17.2c-2.06-.35-3.85-.66-5.98-1.03v-17.28Z"/>
  <path class="cls-1" d="M369.69,70.94h6v23.39h-5.31v-5.11c-2.07-.35-3.87-.65-6-1.01v-10.99c1.38-.23,3.18-.54,5.31-.89v-5.39Z"/>
  <path class="cls-1" d="M424.16,64.81h5.01c.33-1.74.68-3.56,1.07-5.65h11.06c.26,1.57.55,3.39.87,5.32,1.65.19,3.22.37,5.17.6v5.13c-1.34.24-3.15.57-5.3.96v5.07h-12c-.14-1.53-.28-3.1-.46-5.06-1.74-.26-3.57-.54-5.84-.89.15-1.93.28-3.73.41-5.47Z"/>
  <path class="cls-1" d="M280.95,70.76h10.74c.33,1.73.67,3.53,1.08,5.66h11.22c.13,2.08.23,3.87.36,5.96-2.06.16-3.63.29-5.61.44-.27,1.72-.55,3.53-.85,5.42-1.69.2-3.25.38-5.19.61v4.99c-2.1.37-3.9.7-6.05,1.08v4.78c-4.07,1.07-7.84,2.05-12.03,3.15v-25.76h5.04c.47-2.34.89-4.38,1.28-6.34Z"/>
</svg>