<?xml version="1.0" encoding="UTF-8"?>
<svg id="Capa_1" data-name="Capa 1" xmlns="http://www.w3.org/2000/svg" viewBox="0 0 400.8 131.19">
  <defs>
    <style>
      .cls-1 {
        fill: #000;
      }

      .cls-1, .cls-2 {
        stroke-width: 0px;
      }

      .cls-2 {
        fill: #749d2d;
      }
    </style>
  </defs>
  <g>
    <path class="cls-2" d="M8.14,67.77c-5.89,0-8.94-3.79-7.72-10.77l1.9-10.91c.61-3.05.54-5.83-2.3-6.43-.75-.14-1.15-.47-1.02-1.29l.81-5.35c.07-.61.54-.95,1.22-1.08,2.98-.68,4.61-4.06,5.08-7.18l1.9-10.84c1.29-7.32,4.4-10.09,10.84-10.09h3.59c.75,0,1.15.47,1.08,1.29l-1.08,6.3c-.14.68-.54,1.02-1.29,1.02h-1.15c-1.63,0-3.05,1.22-3.45,3.46l-1.96,10.91c-.75,4.47-3.52,7.99-6.91,9.28,2.44.95,4.4,5.01,3.59,9.48l-1.9,10.91c-.34,2.03.14,2.71,1.76,2.71h1.63c.75,0,1.15.54,1.02,1.29l-1.15,6.3c-.07.68-.54,1.02-1.22,1.02h-3.25Z"/>
    <path class="cls-2" d="M39.7,16.81c9.75,0,15.17,6.64,13.61,15.71l-1.35,7.79c-1.35,7.99-7.59,13.48-15.65,13.48-2.57,0-4.88-.54-6.57-1.49l-2.24,12.4c-.07.68-.54,1.08-1.22,1.08h-7.86c-.81,0-1.15-.54-1.02-1.29l7.65-43.69c.14-.54.41-.95.95-1.22,3.93-1.76,9.14-2.78,13.68-2.78ZM43.09,31.78c.81-4.4-.68-6.1-4.33-6.1-1.63,0-3.32.41-4.47,1.02l-3.05,17.2c1.08.81,2.78,1.29,4.33,1.29,3.45,0,5.55-2.03,6.3-6.23l1.22-7.18Z"/>
    <path class="cls-2" d="M70.38,53.79c-9.08,0-14.56-6.77-13-15.38l1.42-8.4c1.49-8.2,8.13-13.28,17.54-13.28s14.7,6.84,13.28,15.1l-1.56,8.54c-1.56,8.53-7.72,13.41-17.68,13.41ZM71.53,44.92c3.52,0,5.69-1.9,6.23-5.08l1.56-8.67c.54-3.05-.88-5.55-4.13-5.55s-5.55,2.03-6.1,5.08l-1.56,8.74c-.61,3.32.81,5.49,4,5.49Z"/>
    <path class="cls-2" d="M127,17.69c1.02,0,1.29.68.61,1.42l-13.28,13.61,8.74,18.83c.34.81,0,1.35-.88,1.35h-8.6c-.68,0-1.15-.27-1.35-.95l-5.08-11.99-2.98,2.84-1.63,9.01c-.07.68-.54,1.08-1.22,1.08h-7.86c-.74,0-1.15-.54-1.08-1.29l8.2-46.06c.14-.68.54-1.08,1.22-1.08h7.86c.81,0,1.22.54,1.08,1.29l-4.06,23.03,9.62-10.5c.34-.47.81-.61,1.42-.61h9.28Z"/>
    <path class="cls-2" d="M144.95,16.74c8.67,0,14.83,4.61,13,14.56l-1.15,6.57c-.14.68-.54,1.02-1.22,1.02h-18.83l-.2.95c-.68,3.59.95,5.35,4.67,5.35,2.98,0,6.1-1.08,8.81-2.71.68-.47,1.22-.41,1.56.34l2.78,5.21c.27.68.2,1.29-.41,1.63-3.66,2.51-8.26,4.13-14.16,4.13-8.87,0-15.04-5.42-13.48-14.22l1.76-9.82c1.63-8.87,8.67-13,16.87-13ZM148.2,30.43c.47-2.71-.68-5.08-4.13-5.08-2.91,0-5.15,1.76-5.76,4.94l-.34,1.83h9.89l.34-1.69Z"/>
    <path class="cls-2" d="M175.22,53.79c-9.82,0-15.24-6.71-13.68-15.71l1.42-7.79c1.42-8.06,7.59-13.55,15.65-13.55,2.51,0,4.88.54,6.57,1.42l2.23-12.6c.14-.68.54-1.08,1.22-1.08h7.86c.81,0,1.22.54,1.08,1.29l-7.79,44.3c-.07.61-.41,1.02-1.02,1.22-3.86,1.56-9.08,2.51-13.55,2.51ZM176.17,44.79c1.63,0,3.39-.27,4.47-.75l3.05-17.48c-1.08-.75-2.78-1.15-4.47-1.15-3.25,0-5.35,2.03-6.1,6.16l-1.29,7.25c-.81,4.27.68,5.96,4.33,5.96Z"/>
    <path class="cls-2" d="M216.6,16.74c8.67,0,14.83,4.61,13,14.56l-1.15,6.57c-.14.68-.54,1.02-1.22,1.02h-18.83l-.2.95c-.68,3.59.95,5.35,4.67,5.35,2.98,0,6.1-1.08,8.81-2.71.68-.47,1.22-.41,1.56.34l2.78,5.21c.27.68.2,1.29-.41,1.63-3.66,2.51-8.26,4.13-14.16,4.13-8.87,0-15.04-5.42-13.48-14.22l1.76-9.82c1.63-8.87,8.67-13,16.87-13ZM219.85,30.43c.47-2.71-.68-5.08-4.13-5.08-2.91,0-5.15,1.76-5.76,4.94l-.34,1.83h9.89l.34-1.69Z"/>
    <path class="cls-2" d="M244.98,53.79c-5.62,0-10.02-1.49-13.75-4.54-.61-.47-.61-1.08-.2-1.63l3.86-5.28c.47-.61,1.02-.68,1.63-.27,2.64,1.96,5.62,2.91,8.81,2.91s4.88-1.02,5.21-2.57c.47-2.1-1.9-2.64-4.61-3.25-6.64-1.35-11.92-5.35-10.43-12.67,1.42-6.84,7.11-9.75,15.31-9.75,4.67,0,8.26,1.02,11.92,3.12.68.41.75,1.02.27,1.62l-4,5.35c-.41.61-.95.68-1.62.34-2.1-1.22-4.67-1.83-7.52-1.83-2.51,0-4.06.54-4.33,2.24-.41,2.03,1.76,2.64,5.01,3.39,5.22,1.15,11.72,4.4,10.3,12.33-1.35,7.18-7.38,10.5-15.85,10.5Z"/>
    <path class="cls-2" d="M277.29,53.79c-9.48,0-14.29-5.42-12.94-12.8,1.15-6.57,6.71-9.48,15.38-9.48,2.03,0,4.06.2,5.76.54l.13-1.08c.61-3.32-.34-5.15-4.61-5.15-2.98,0-6.03.61-8.06,1.56-.75.34-1.29.2-1.56-.54l-2.1-5.55c-.2-.61-.2-1.08.2-1.35,3.25-1.96,8.33-3.18,13.82-3.18,9.21,0,13.95,6.1,12.12,16.26l-3.05,17.14c-.13.61-.41,1.08-1.02,1.29-3.86,1.36-8.87,2.37-14.09,2.37ZM278.57,45.33c1.56,0,3.45-.27,4.67-.54l.95-5.89c-1.29-.27-2.84-.47-4.33-.47-3.32,0-5.08,1.08-5.42,3.12-.47,2.57,1.15,3.79,4.13,3.79Z"/>
    <path class="cls-2" d="M320.23,12.54c-2.85,0-4.47,1.56-5.08,4.74l-.2,1.35h5.96c.75,0,1.15.47,1.08,1.29l-1.08,6.23c-.14.68-.54,1.08-1.29,1.08h-6.23l-4.4,24.59c-.07.68-.47,1.08-1.22,1.08h-7.86c-.81,0-1.22-.54-1.08-1.29l6.3-35.29c1.49-8.4,6.57-12.73,14.97-12.73,1.56,0,3.12.07,4.27.27.75.14,1.08.61.95,1.42l-1.15,6.43c-.07.81-.47,1.08-1.08,1.02-.81-.14-1.96-.2-2.84-.2Z"/>
    <path class="cls-2" d="M322.12,52.91c-.75,0-1.22-.54-1.08-1.29l5.83-32.92c.14-.68.54-1.02,1.29-1.02h7.86c.75,0,1.22.47,1.08,1.22l-5.89,32.92c-.14.68-.54,1.08-1.22,1.08h-7.86ZM328.69,13.7c-1.02,0-1.29-.68-.68-1.42l7.25-8.94c.41-.47.88-.68,1.49-.68h7.04c1.02,0,1.35.75.61,1.49l-9.01,8.94c-.41.47-.81.61-1.42.61h-5.28Z"/>
    <path class="cls-2" d="M352.73,53.79c-9.08,0-14.56-6.77-13-15.38l1.42-8.4c1.49-8.2,8.13-13.28,17.54-13.28s14.7,6.84,13.28,15.1l-1.56,8.54c-1.56,8.53-7.72,13.41-17.68,13.41ZM353.89,44.92c3.52,0,5.69-1.9,6.23-5.08l1.56-8.67c.54-3.05-.88-5.55-4.13-5.55s-5.55,2.03-6.1,5.08l-1.56,8.74c-.61,3.32.81,5.49,4,5.49Z"/>
    <path class="cls-2" d="M387,3.76c5.89,0,8.94,3.79,7.72,10.77l-1.9,10.91c-.61,3.05-.54,5.83,2.3,6.43.75.14,1.15.47,1.02,1.29l-.81,5.35c-.07.61-.54.95-1.22,1.08-2.98.68-4.61,4.06-5.08,7.18l-1.9,10.84c-1.29,7.32-4.4,10.09-10.84,10.09h-3.59c-.75,0-1.15-.47-1.08-1.29l1.08-6.3c.14-.68.54-1.02,1.29-1.02h1.15c1.63,0,3.05-1.22,3.45-3.45l1.96-10.91c.75-4.47,3.52-7.99,6.91-9.28-2.44-.95-4.4-5.01-3.59-9.48l1.9-10.91c.34-2.03-.14-2.71-1.76-2.71h-1.62c-.75,0-1.15-.54-1.02-1.29l1.15-6.3c.07-.68.54-1.02,1.22-1.02h3.25Z"/>
  </g>
  <g>
    <path class="cls-1" d="M4.61,127.12c-1.09,0-2.05-.12-2.84-.24-.67-.12-.91-.6-.79-1.27l1.09-6.16c.12-.67.48-.97,1.03-.91.48.06,1.03.06,1.51.06,1.99,0,3.38-1.51,3.93-4.71l5.14-29.49c.12-.6.48-.91,1.15-.91h7.01c.67,0,1.03.42.91,1.09l-5.26,30.39c-1.69,9.55-6.83,12.15-12.87,12.15ZM19.41,79.08c-3.08,0-5.02-2.48-4.41-5.62.54-2.66,2.6-4.41,5.32-4.41,3.08,0,5.02,2.42,4.41,5.68-.48,2.48-2.6,4.35-5.32,4.35Z"/>
    <path class="cls-1" d="M54.7,83.49c.73,0,1.03.42.91,1.09l-4.89,27.61c-.12.54-.42.91-.91,1.09-3.75,1.51-8.34,2.36-12.15,2.36-9,0-13.11-5.74-11.6-14.26l3.02-16.98c.12-.6.48-.91,1.09-.91h7.01c.66,0,1.03.42.91,1.09l-3.02,17.7c-.67,3.75.67,5.5,3.69,5.5,1.45,0,2.9-.3,3.75-.67l4.05-22.72c.06-.6.48-.91,1.09-.91h7.07Z"/>
    <path class="cls-1" d="M67.08,115.7c-6.53,0-9.91-5.14-8.58-12.99l5.32-30.03c.12-.6.48-.97,1.09-.97h7.01c.67,0,1.03.48.91,1.15l-5.32,30.33c-.54,2.9.18,4.53,2.36,4.53h1.21c.73-.06,1.09.24.97.97l-.97,5.74c-.12.6-.36.91-.79.97-.85.18-1.93.3-3.2.3Z"/>
    <path class="cls-1" d="M75.72,114.92c-.67,0-1.03-.48-.91-1.15l5.2-29.37c.06-.6.48-.91,1.09-.91h7.01c.73,0,1.09.42.97,1.09l-5.2,29.37c-.12.6-.48.97-1.15.97h-7.01ZM85.75,79.08c-3.08,0-5.02-2.48-4.41-5.62.48-2.66,2.54-4.41,5.32-4.41,3.08,0,5.02,2.42,4.41,5.68-.48,2.48-2.6,4.35-5.32,4.35Z"/>
    <path class="cls-1" d="M103.09,115.7c-8.1,0-12.99-6.04-11.6-13.72l1.27-7.49c1.33-7.31,7.25-11.84,15.65-11.84s13.11,6.1,11.84,13.47l-1.39,7.61c-1.39,7.61-6.89,11.96-15.77,11.96ZM104.12,107.79c3.14,0,5.08-1.69,5.56-4.53l1.39-7.73c.48-2.72-.79-4.96-3.69-4.96s-4.96,1.81-5.44,4.53l-1.39,7.79c-.54,2.96.72,4.89,3.56,4.89Z"/>
    <path class="cls-1" d="M147.44,115.7c-8.1,0-12.99-6.04-11.6-13.72l1.27-7.49c1.33-7.31,7.25-11.84,15.65-11.84s13.11,6.1,11.84,13.47l-1.39,7.61c-1.39,7.61-6.89,11.96-15.77,11.96ZM148.47,107.79c3.14,0,5.08-1.69,5.56-4.53l1.39-7.73c.48-2.72-.79-4.96-3.69-4.96s-4.95,1.81-5.44,4.53l-1.39,7.79c-.54,2.96.72,4.89,3.56,4.89Z"/>
    <path class="cls-1" d="M177.35,115.7c-6.53,0-9.91-5.14-8.58-12.99l5.32-30.03c.12-.6.48-.97,1.09-.97h7.01c.67,0,1.03.48.91,1.15l-5.32,30.33c-.54,2.9.18,4.53,2.36,4.53h1.21c.73-.06,1.09.24.97.97l-.97,5.74c-.12.6-.36.91-.79.97-.85.18-1.93.3-3.2.3Z"/>
    <path class="cls-1" d="M185.98,114.92c-.67,0-1.03-.48-.91-1.15l5.2-29.37c.06-.6.48-.91,1.09-.91h7.01c.73,0,1.09.42.97,1.09l-5.2,29.37c-.12.6-.48.97-1.15.97h-7.01ZM196.02,79.08c-3.08,0-5.02-2.48-4.41-5.62.48-2.66,2.54-4.41,5.32-4.41,3.08,0,5.02,2.42,4.41,5.68-.48,2.48-2.6,4.35-5.32,4.35Z"/>
    <path class="cls-1" d="M208.76,114.92c-.67,0-1.09-.3-1.15-.97l-4.65-29.37c-.06-.67.3-1.09,1.03-1.09h7.01c.6,0,1.03.3,1.09.97l1.45,12.99c.24,2.05.54,5.26.72,7.98h.12c1.09-2.66,2.18-5.44,3.26-8.04l5.74-13.11c.24-.48.66-.79,1.27-.79h7.49c.79,0,1.09.48.72,1.21l-14.92,29.43c-.24.54-.67.79-1.21.79h-7.98Z"/>
    <path class="cls-1" d="M242.18,115.7c-8.46,0-12.75-4.83-11.54-11.42,1.03-5.86,5.98-8.46,13.72-8.46,1.81,0,3.62.18,5.14.48l.12-.97c.54-2.96-.3-4.59-4.11-4.59-2.66,0-5.38.54-7.19,1.39-.66.3-1.15.18-1.39-.48l-1.87-4.96c-.18-.54-.18-.97.18-1.21,2.9-1.75,7.43-2.84,12.33-2.84,8.22,0,12.45,5.44,10.82,14.5l-2.72,15.29c-.12.54-.36.97-.91,1.15-3.44,1.21-7.92,2.11-12.57,2.11ZM243.32,108.15c1.39,0,3.08-.24,4.17-.48l.85-5.26c-1.15-.24-2.54-.42-3.87-.42-2.96,0-4.53.97-4.83,2.78-.42,2.3,1.03,3.38,3.69,3.38Z"/>
    <path class="cls-1" d="M262.35,114.92c-.73,0-1.09-.48-.97-1.15l4.77-27.43c.12-.54.42-.91.91-1.15,3.5-1.63,7.37-2.54,11.18-2.54,1.63,0,3.26.18,5.01.54.67.12.97.6.85,1.21l-1.09,5.92c-.06.66-.54.97-1.21.91-1.03-.18-2.24-.3-3.5-.3-1.57,0-2.9.3-3.93.72l-3.93,22.3c-.12.6-.48.97-1.09.97h-7.01Z"/>
    <path class="cls-1" d="M300.3,82.65c7.73,0,13.23,4.11,11.6,12.99l-1.03,5.86c-.12.6-.48.91-1.09.91h-16.8l-.18.85c-.6,3.2.85,4.77,4.17,4.77,2.66,0,5.44-.97,7.86-2.42.6-.42,1.09-.36,1.39.3l2.48,4.65c.24.6.18,1.15-.36,1.45-3.26,2.24-7.37,3.69-12.63,3.69-7.92,0-13.42-4.83-12.02-12.69l1.57-8.76c1.45-7.92,7.73-11.6,15.05-11.6ZM303.2,94.85c.42-2.42-.6-4.53-3.69-4.53-2.6,0-4.59,1.57-5.14,4.41l-.3,1.63h8.82l.3-1.51Z"/>
    <path class="cls-1" d="M325.62,115.7c-5.02,0-8.94-1.33-12.27-4.05-.54-.42-.54-.97-.18-1.45l3.44-4.71c.42-.54.91-.6,1.45-.24,2.36,1.75,5.02,2.6,7.86,2.6s4.35-.91,4.65-2.3c.42-1.87-1.69-2.36-4.11-2.9-5.92-1.21-10.63-4.77-9.31-11.3,1.27-6.1,6.34-8.7,13.66-8.7,4.17,0,7.37.91,10.63,2.78.6.36.67.91.24,1.45l-3.56,4.77c-.36.54-.85.6-1.45.3-1.87-1.09-4.17-1.63-6.71-1.63-2.24,0-3.63.48-3.87,1.99-.36,1.81,1.57,2.36,4.47,3.02,4.65,1.03,10.45,3.93,9.18,11-1.21,6.41-6.59,9.37-14.14,9.37Z"/>
    <path class="cls-1" d="M369.72,122.47c-.06.6-.48.97-1.09.97h-26.95c-.67,0-1.03-.48-.91-1.15l.97-5.62c.06-.66.48-.97,1.09-.97h26.95c.72,0,1.09.42.97,1.15l-1.03,5.62Z"/>
  </g>
</svg>